<?xml version="1.0" standalone="no"?>
<!DOCTYPE svg PUBLIC "-//W3C//DTD SVG 1.1//EN" "http://www.w3.org/Graphics/SVG/1.1/DTD/svg11.dtd" >
<svg xmlns="http://www.w3.org/2000/svg" xmlns:xlink="http://www.w3.org/1999/xlink" version="1.1">
<metadata>
Created by FontForge 20170731 at Sat Jul 27 03:38:08 2013
 By Aleksey,,,
Copyright WolfieMario 2013
A:u'RuneScape Chat Bold '07A:u` is based on A:u'RuneScape Chat BoldA:u` by A:u'WolfieMarioA:u` (http://fontstruct.com/fontstructors/wolfiemario), which is based on A:u'RuneScape ChatA:u` by A:u'WolfieMarioA:u` (http://fontstruct.com/fontstructors/wolfiemario)
</metadata>
<defs>
<font id="RuneScape-Chat-Bold-'07" horiz-adv-x="512" >
  <font-face 
    font-family="RuneScape Chat Bold '07"
    font-weight="400"
    font-variant="small-caps"
    font-stretch="normal"
    units-per-em="1024"
    panose-1="0 0 4 0 0 0 0 0 0 0"
    ascent="819"
    descent="-205"
    x-height="512"
    cap-height="768"
    bbox="0 -128 832 896"
    underline-thickness="51"
    underline-position="26"
    unicode-range="U+0020-2122"
  />
<missing-glyph horiz-adv-x="64" 
d="M384 109v122h-123v-122h123zM506 251v123h-245v-123h245zM384 393v123h-123v-123h123zM506 536v122h-122q-51 0 -87 -36t-36 -86h245zM0 0v768h768v-768h-768z" />
    <glyph glyph-name=".notdef" horiz-adv-x="64" 
d="M384 109v122h-123v-122h123zM506 251v123h-245v-123h245zM384 393v123h-123v-123h123zM506 536v122h-122q-51 0 -87 -36t-36 -86h245zM0 0v768h768v-768h-768z" />
    <glyph glyph-name="glyph1" horiz-adv-x="0" 
 />
    <glyph glyph-name="glyph2" horiz-adv-x="192" 
 />
    <glyph glyph-name="space" unicode=" " horiz-adv-x="256" 
 />
    <glyph glyph-name="exclam" unicode="!" horiz-adv-x="256" 
d="M64 128v128h128v-128h-128zM64 320v448h128v-448h-128z" />
    <glyph glyph-name="quotedbl" unicode="&#x22;" horiz-adv-x="448" 
d="M64 640v256h128v-256h-128zM256 640v256h128v-256h-128z" />
    <glyph glyph-name="numbersign" unicode="#" horiz-adv-x="896" 
d="M512 384v128h-128v-128h128zM128 128v128h64v64h-128v64h192v128h-192v64h256v64h64v128h128v-128h-64v-64h128v64h64v128h128v-128h-64v-64h128v-64h-192v-128h192v-64h-256v-64h-64v-128h-128v128h64v64h-128v-64h-64v-128h-128z" />
    <glyph glyph-name="dollar" unicode="$" horiz-adv-x="576" 
d="M384 256v64h-64v-64h64zM256 512v64h-64v-64h64zM256 0v128h-128v64h-64v128h128v-128h64v192h-64v64h-64v64h-64v64h64v64h64v64h64v64h64v-64h128v-64h64v-128h-128v128h-64v-192h64v-64h64v-64h64v-64h-64v-64h-64v-64h-64v-128h-64z" />
    <glyph glyph-name="percent" unicode="%" horiz-adv-x="768" 
d="M576 192v192h-64v-192h64zM256 512v192h-64v-192h64zM448 128v64h-64v128h-64v-64h-64v-64h-128v64h64v64h64v64h64v64h64v64h64v64h64v64h64v64h128v-64h-64v-64h-64v-64h-64v-64h128v-64h64v-192h-64v-64h-192zM128 448v64h-64v192h64v64h192v-64h64v-192h-64v-64h-192
z" />
    <glyph glyph-name="ampersand" unicode="&#x26;" horiz-adv-x="704" 
d="M384 192v64h64v128h-64v64h-128v-64h-64v-128h64v-64h128zM384 512v192h-128v-128h64v-64h64zM192 128v64h-64v64h-64v128h64v64h64v128h-64v128h64v64h256v-64h64v-192h-64v-64h64v-64h64v64h128v-64h-64v-128h64v-64h64v-64h-128v64h-64v64h-64v-64h-64v-64h-256z" />
    <glyph glyph-name="quotesingle" unicode="'" horiz-adv-x="256" 
d="M64 640v64h64v-64h-64zM128 704v64h-64v128h128v-192h-64z" />
    <glyph glyph-name="parenleft" unicode="(" horiz-adv-x="320" 
d="M192 64v64h-64v64h-64v448h64v64h64v64h128v-64h-64v-64h-64v-448h64v-64h64v-64h-128z" />
    <glyph glyph-name="parenright" unicode=")" horiz-adv-x="320" 
d="M0 64v64h64v64h64v448h-64v64h-64v64h128v-64h64v-64h64v-448h-64v-64h-64v-64h-128z" />
    <glyph glyph-name="asterisk" unicode="*" horiz-adv-x="640" 
d="M128 384v64h64v64h64v64h-192v64h192v128h128v-128h192v-64h-192v-64h64v-64h64v-64h-128v64h-128v-64h-128z" />
    <glyph glyph-name="plus" unicode="+" 
d="M192 192v192h-192v64h192v192h128v-192h192v-64h-192v-192h-128z" />
    <glyph glyph-name="comma" unicode="," horiz-adv-x="256" 
d="M64 128v256h128v-256h-128z" />
    <glyph glyph-name="hyphen" unicode="-" 
d="M64 384v64h384v-64h-384z" />
    <glyph glyph-name="period" unicode="." horiz-adv-x="256" 
d="M64 128v64h128v-64h-128z" />
    <glyph glyph-name="slash" unicode="/" horiz-adv-x="448" 
d="M64 128v192h64v192h64v192h64v192h128v-192h-64v-192h-64v-192h-64v-192h-128z" />
    <glyph glyph-name="zero" unicode="0" horiz-adv-x="576" 
d="M256 384v128h64v-128h-64zM320 192v64h64v256h-64v192h-64v-64h-64v-256h64v-192h64zM192 128v64h-64v64h-64v384h64v64h64v64h192v-64h64v-64h64v-384h-64v-64h-64v-64h-192z" />
    <glyph glyph-name="one" unicode="1" horiz-adv-x="448" 
d="M64 128v64h128v384h-128v64h64v64h64v64h128v-576h128v-64h-384z" />
    <glyph glyph-name="two" unicode="2" horiz-adv-x="576" 
d="M64 128v128h64v64h64v64h64v64h64v64h64v128h-64v64h-128v-64h-128v64h64v64h256v-64h64v-64h64v-128h-64v-64h-64v-64h-64v-64h-64v-64h-64v-64h320v-64h-448z" />
    <glyph glyph-name="three" unicode="3" 
d="M128 128v64h-64v64h128v-64h128v256h-192v64h192v192h-128v-64h-128v64h64v64h256v-64h64v-192h-64v-64h64v-256h-64v-64h-256z" />
    <glyph glyph-name="four" unicode="4" 
d="M256 128v128h-192v512h128v-448h64v192h128v-192h128v-64h-128v-128h-128z" />
    <glyph glyph-name="five" unicode="5" 
d="M128 128v64h-64v64h128v-64h128v256h-64v64h-192v256h384v-64h-256v-128h128v-64h64v-64h64v-256h-64v-64h-256z" />
    <glyph glyph-name="six" unicode="6" horiz-adv-x="576" 
d="M320 192v64h64v128h-64v64h-64v-64h-64v-128h64v-64h64zM192 128v64h-64v64h-64v384h64v64h64v64h192v-64h64v-64h-128v64h-64v-64h-64v-128h192v-64h64v-64h64v-128h-64v-64h-64v-64h-192z" />
    <glyph glyph-name="seven" unicode="7" 
d="M64 128v128h64v128h64v128h64v128h64v64h-256v64h384v-128h-64v-128h-64v-128h-64v-128h-64v-128h-128z" />
    <glyph glyph-name="eight" unicode="8" horiz-adv-x="576" 
d="M320 192v64h64v128h-64v64h-64v-64h-64v-128h64v-64h64zM320 512v64h64v64h-64v64h-64v-64h-64v-64h64v-64h64zM192 128v64h-64v64h-64v128h64v64h64v64h-64v64h-64v64h64v64h64v64h192v-64h64v-64h64v-64h-64v-64h-64v-64h64v-64h64v-128h-64v-64h-64v-64h-192z" />
    <glyph glyph-name="nine" unicode="9" horiz-adv-x="576" 
d="M384 448v256h-192v-192h64v-64h128zM384 128v256h-192v64h-64v64h-64v192h64v64h320v-64h64v-576h-128z" />
    <glyph glyph-name="colon" unicode=":" horiz-adv-x="256" 
d="M64 128v64h128v-64h-128zM64 448v64h128v-64h-128z" />
    <glyph glyph-name="semicolon" unicode=";" horiz-adv-x="320" 
d="M0 128v64h64v64h64v192h128v-192h-64v-64h-64v-64h-128zM128 512v64h128v-64h-128z" />
    <glyph glyph-name="less" unicode="&#x3c;" 
d="M320 256v64h-192v64h-64v64h-64v64h64v64h64v64h192v64h128v-64h-64v-64h-192v-64h-64v-64h64v-64h192v-64h64v-64h-128z" />
    <glyph glyph-name="equal" unicode="=" horiz-adv-x="448" 
d="M0 256v64h448v-64h-448zM0 448v64h448v-64h-448z" />
    <glyph glyph-name="greater" unicode="&#x3e;" horiz-adv-x="576" 
d="M64 256v64h64v64h192v64h64v64h-64v64h-192v64h-64v64h128v-64h192v-64h64v-64h64v-64h-64v-64h-64v-64h-192v-64h-128z" />
    <glyph glyph-name="question" unicode="?" horiz-adv-x="576" 
d="M192 128v64h128v-64h-128zM192 256v192h64v64h64v64h64v256h-192v-64h-64v-64h-128v64h64v64h64v64h320v-64h64v-256h-64v-64h-64v-64h-64v-192h-128z" />
    <glyph glyph-name="at" unicode="@" horiz-adv-x="896" 
d="M448 320v64h64v192h-128v-64h-64v-192h128zM704 384v256h-64v64h-320v-64h-64v-64h-64v-64h64v64h64v64h256v-64h64v-192h64zM192 128v64h-64v64h-64v320h64v64h64v64h64v64h448v-64h64v-64h64v-320h-64v-64h-128v64h-128v-64h-256v64h-64v-64h64v-64h512v-64h-576z" />
    <glyph glyph-name="A" unicode="A" horiz-adv-x="576" 
d="M384 512v128h-64v64h-64v-64h-64v-128h192zM64 128v512h64v64h64v64h192v-64h64v-64h64v-512h-128v320h-192v-320h-128z" />
    <glyph glyph-name="B" unicode="B" 
d="M320 192v256h-128v-256h128zM320 512v192h-128v-192h128zM64 128v640h320v-64h64v-192h-64v-64h64v-256h-64v-64h-320z" />
    <glyph glyph-name="C" unicode="C" 
d="M192 128v64h-64v64h-64v384h64v64h64v64h192v-64h64v-64h-128v64h-64v-64h-64v-384h64v-64h64v64h128v-64h-64v-64h-192z" />
    <glyph glyph-name="D" unicode="D" 
d="M320 192v448h-64v64h-64v-512h128zM64 128v640h256v-64h64v-64h64v-448h-64v-64h-320z" />
    <glyph glyph-name="E" unicode="E" horiz-adv-x="448" 
d="M64 128v640h384v-64h-256v-192h128v-64h-128v-256h256v-64h-384z" />
    <glyph glyph-name="F" unicode="F" horiz-adv-x="448" 
d="M64 128v640h384v-64h-256v-192h128v-64h-128v-320h-128z" />
    <glyph glyph-name="G" unicode="G" horiz-adv-x="576" 
d="M192 128v64h-64v64h-64v384h64v64h64v64h256v-64h64v-64h-128v64h-128v-64h-64v-384h64v-64h128v256h-128v64h192v-64h64v-256h-64v-64h-256z" />
    <glyph glyph-name="H" unicode="H" 
d="M64 128v640h128v-256h128v256h128v-640h-128v320h-128v-320h-128z" />
    <glyph glyph-name="I" unicode="I" horiz-adv-x="256" 
d="M0 128v64h64v512h-64v64h256v-64h-64v-512h64v-64h-256z" />
    <glyph glyph-name="J" unicode="J" 
d="M128 128v64h-64v128h128v-128h64v512h-192v64h448v-64h-128v-512h-64v-64h-192z" />
    <glyph glyph-name="K" unicode="K" 
d="M64 128v640h128v-128h64v64h64v64h128v-64h-64v-64h-64v-64h-64v-64h-64v-64h64v-64h64v-64h64v-64h64v-64h64v-64h-128v64h-64v64h-64v64h-64v-192h-128z" />
    <glyph glyph-name="L" unicode="L" 
d="M64 128v640h128v-576h256v-64h-384z" />
    <glyph glyph-name="M" unicode="M" horiz-adv-x="640" 
d="M64 128v640h128v-128h64v-64h128v64h64v128h128v-640h-128v384h-64v-64h-128v64h-64v-384h-128z" />
    <glyph glyph-name="N" unicode="N" horiz-adv-x="576" 
d="M64 128v640h128v-64h64v-64h64v-128h64v256h128v-640h-128v64h-64v128h-64v192h-64v-384h-128z" />
    <glyph glyph-name="O" unicode="O" horiz-adv-x="576" 
d="M320 192v64h64v384h-64v64h-64v-64h-64v-384h64v-64h64zM192 128v64h-64v64h-64v384h64v64h64v64h192v-64h64v-64h64v-384h-64v-64h-64v-64h-192z" />
    <glyph glyph-name="P" unicode="P" 
d="M256 448v64h64v128h-64v64h-64v-256h64zM64 128v640h256v-64h64v-64h64v-128h-64v-64h-64v-64h-128v-256h-128z" />
    <glyph glyph-name="Q" unicode="Q" horiz-adv-x="576" 
d="M320 192v64h-64v64h-64v-64h64v-64h64zM384 320v320h-64v64h-64v-64h-64v-256h128v-64h64zM192 128v64h-64v64h-64v384h64v64h64v64h192v-64h64v-64h64v-384h-64v-64h64v-64h-320z" />
    <glyph glyph-name="R" unicode="R" 
d="M256 448v64h64v192h-128v-256h64zM64 128v640h320v-64h64v-192h-64v-64h-64v-128h64v-64h64v-128h-128v128h-64v64h-64v-192h-128z" />
    <glyph glyph-name="S" unicode="S" 
d="M128 128v64h-64v64h128v-64h64v64h64v128h-64v64h-64v64h-64v64h-64v64h64v64h64v64h192v-64h64v-64h-128v64h-64v-64h-64v-64h64v-64h64v-64h64v-64h64v-128h-64v-64h-64v-64h-192z" />
    <glyph glyph-name="T" unicode="T" horiz-adv-x="384" 
d="M128 128v576h-128v64h384v-64h-128v-576h-128z" />
    <glyph glyph-name="U" unicode="U" horiz-adv-x="576" 
d="M192 128v64h-64v64h-64v512h128v-512h64v-64h64v64h64v512h128v-640h-320z" />
    <glyph glyph-name="V" unicode="V" 
d="M192 128v128h-64v192h-64v320h128v-320h128v320h128v-320h-64v-192h-64v-128h-128z" />
    <glyph glyph-name="W" unicode="W" horiz-adv-x="640" 
d="M192 128v64h-64v64h-64v512h128v-512h64v256h128v-256h64v512h128v-512h-64v-64h-64v-64h-256z" />
    <glyph glyph-name="X" unicode="X" 
d="M64 128v192h64v128h64v64h-64v128h-64v128h128v-128h128v128h128v-128h-64v-128h-64v-64h64v-128h64v-192h-128v192h-128v-192h-128z" />
    <glyph glyph-name="Y" unicode="Y" 
d="M192 128v384h-64v64h-64v192h128v-192h128v192h128v-192h-64v-64h-64v-384h-128z" />
    <glyph glyph-name="Z" unicode="Z" 
d="M64 128v192h64v128h64v64h64v128h64v64h-256v64h384v-128h-64v-128h-64v-64h-64v-128h-64v-128h256v-64h-384z" />
    <glyph glyph-name="bracketleft" unicode="[" horiz-adv-x="384" 
d="M64 64v704h320v-64h-192v-576h192v-64h-320z" />
    <glyph glyph-name="backslash" unicode="\" horiz-adv-x="448" 
d="M256 128v192h-64v192h-64v192h-64v192h128v-192h64v-192h64v-192h64v-192h-128z" />
    <glyph glyph-name="bracketright" unicode="]" horiz-adv-x="384" 
d="M0 64v64h192v576h-192v64h320v-704h-320z" />
    <glyph glyph-name="asciicircum" unicode="^" horiz-adv-x="576" 
d="M64 448v64h64v192h64v64h192v-64h64v-192h64v-64h-128v64h-64v192h-64v-192h-64v-64h-128z" />
    <glyph glyph-name="underscore" unicode="_" horiz-adv-x="640" 
d="M64 128v64h512v-64h-512z" />
    <glyph glyph-name="grave" unicode="`" horiz-adv-x="320" 
d="M64 640v192h64v-64h128v-128h-192zM128 832v64h128v-64h-128z" />
    <glyph glyph-name="a" unicode="a" 
d="M320 192v128h-128v-128h128zM320 384v64h-128v-64h128zM128 128v64h-64v128h64v64h-64v64h64v64h256v-64h64v-320h-320z" />
    <glyph glyph-name="b" unicode="b" 
d="M320 192v192h-64v64h-64v-256h128zM64 128v640h128v-256h128v-64h64v-64h64v-192h-64v-64h-320z" />
    <glyph glyph-name="c" unicode="c" horiz-adv-x="448" 
d="M128 128v64h-64v256h64v64h256v-64h-192v-256h192v-64h-256z" />
    <glyph glyph-name="d" unicode="d" 
d="M320 192v256h-64v-64h-64v-192h128zM128 128v64h-64v192h64v64h64v64h128v256h128v-640h-320z" />
    <glyph glyph-name="e" unicode="e" 
d="M320 320v128h-128v-128h128zM128 128v64h-64v256h64v64h256v-64h64v-128h-64v-64h-192v-64h256v-64h-320z" />
    <glyph glyph-name="f" unicode="f" horiz-adv-x="384" 
d="M64 -64v64h64v320h-64v64h64v192h64v64h192v-64h64v-64h-128v64h-64v-192h64v-64h-64v-320h-64v-64h-128z" />
    <glyph glyph-name="g" unicode="g" 
d="M320 192v256h-128v-256h128zM128 -128v64h-64v64h128v-64h128v192h-192v64h-64v256h64v64h256v-64h64v-512h-64v-64h-256z" />
    <glyph glyph-name="h" unicode="h" 
d="M64 128v640h128v-256h192v-64h64v-320h-128v320h-64v-64h-64v-256h-128z" />
    <glyph glyph-name="i" unicode="i" horiz-adv-x="256" 
d="M64 128v320h128v-320h-128zM64 512v64h128v-64h-128z" />
    <glyph glyph-name="j" unicode="j" horiz-adv-x="448" 
d="M128 -128v64h-64v128h128v-128h64v512h128v-512h-64v-64h-192zM256 512v64h128v-64h-128z" />
    <glyph glyph-name="k" unicode="k" horiz-adv-x="384" 
d="M64 128v640h128v-320h64v64h128v-64h-64v-64h-64v-64h64v-64h64v-64h64v-64h-128v64h-64v64h-64v-128h-128z" />
    <glyph glyph-name="l" unicode="l" horiz-adv-x="256" 
d="M64 128v640h128v-640h-128z" />
    <glyph glyph-name="m" unicode="m" horiz-adv-x="640" 
d="M64 128v320h64v64h384v-64h64v-320h-128v320h-64v-320h-128v320h-64v-320h-128z" />
    <glyph glyph-name="n" unicode="n" 
d="M64 128v384h320v-64h64v-320h-128v320h-64v-64h-64v-256h-128z" />
    <glyph glyph-name="o" unicode="o" 
d="M320 192v256h-128v-256h128zM128 128v64h-64v256h64v64h256v-64h64v-256h-64v-64h-256z" />
    <glyph glyph-name="p" unicode="p" 
d="M320 192v256h-128v-256h128zM64 -128v576h64v64h256v-64h64v-256h-64v-64h-192v-256h-128z" />
    <glyph glyph-name="q" unicode="q" horiz-adv-x="448" 
d="M320 192v256h-64v-64h-64v-128h64v-64h64zM320 -128v256h-128v64h-64v64h-64v128h64v64h64v64h192v-64h64v-576h-128z" />
    <glyph glyph-name="r" unicode="r" horiz-adv-x="384" 
d="M64 128v384h256v-64h-64v-64h-64v-256h-128z" />
    <glyph glyph-name="s" unicode="s" 
d="M64 128v64h256v128h-192v64h-64v64h64v64h320v-64h-256v-64h192v-64h64v-128h-64v-64h-320z" />
    <glyph glyph-name="t" unicode="t" horiz-adv-x="384" 
d="M128 128v64h-64v512h128v-192h128v-64h-128v-256h128v-64h-192z" />
    <glyph glyph-name="u" unicode="u" 
d="M128 128v64h-64v320h128v-320h128v320h128v-320h-64v-64h-256z" />
    <glyph glyph-name="v" unicode="v" 
d="M192 128v128h-64v128h-64v128h128v-128h128v128h128v-128h-64v-128h-64v-128h-128z" />
    <glyph glyph-name="w" unicode="w" horiz-adv-x="576" 
d="M128 128v64h-64v320h128v-192h64v64h64v-64h64v192h128v-320h-64v-64h-64v64h-64v64h-64v-64h-64v-64h-64z" />
    <glyph glyph-name="x" unicode="x" 
d="M64 128v64h64v128h64v64h-64v64h-64v64h128v-64h128v64h128v-64h-64v-64h-64v-64h64v-128h64v-64h-128v64h-128v-64h-128z" />
    <glyph glyph-name="y" unicode="y" 
d="M128 -128v64h-64v64h128v-64h64v64h64v192h-192v64h-64v256h128v-256h128v256h128v-512h-64v-64h-64v-64h-192z" />
    <glyph glyph-name="z" unicode="z" 
d="M64 128v128h64v64h64v64h64v64h-192v64h384v-64h-64v-64h-64v-64h-64v-64h-64v-64h256v-64h-384z" />
    <glyph glyph-name="braceleft" unicode="{" horiz-adv-x="384" 
d="M192 64v64h-64v192h-64v64h-64v64h64v64h64v192h64v64h192v-64h-128v-192h-64v-64h-64v-64h64v-64h64v-192h128v-64h-192z" />
    <glyph glyph-name="bar" unicode="|" horiz-adv-x="256" 
d="M64 128v768h128v-768h-128z" />
    <glyph glyph-name="braceright" unicode="}" horiz-adv-x="384" 
d="M0 64v64h128v192h64v64h64v64h-64v64h-64v192h-128v64h192v-64h64v-192h64v-64h64v-64h-64v-64h-64v-192h-64v-64h-192z" />
    <glyph glyph-name="asciitilde" unicode="~" horiz-adv-x="704" 
d="M64 384v64h64v64h64v64h256v-64h64v-64h64v64h128v-64h-64v-64h-192v64h-64v64h-128v-64h-64v-64h-128z" />
    <glyph glyph-name="exclamdown" unicode="&#xa1;" horiz-adv-x="256" 
d="M64 128v448h128v-448h-128zM64 640v128h128v-128h-128z" />
    <glyph glyph-name="cent" unicode="&#xa2;" 
d="M384 192v64h64v-64h-64zM384 384v64h64v-64h-64zM128 64v128h-64v256h64v64h192v64h64v-128h-64v-128h-64v128h-64v-128h64v-128h128v-64h-192v-64h-64z" />
    <glyph glyph-name="sterling" unicode="&#xa3;" horiz-adv-x="640" 
d="M0 128v64h128v256h-128v64h128v192h64v64h64v64h256v-64h64v-64h-128v64h-128v-64h-64v-192h128v-64h-128v-256h320v-64h-576z" />
    <glyph glyph-name="currency" unicode="&#xa4;" 
d="M64 128v64h64v-64h-64zM384 128v64h64v-64h-64zM320 256v128h-128v-128h128zM64 448v64h64v-64h-64zM192 128v64h-64v64h-64v128h64v64h64v64h128v-64h64v-64h64v-128h-64v-64h-64v-64h-128zM384 448v64h64v-64h-64z" />
    <glyph glyph-name="yen" unicode="&#xa5;" 
d="M128 128v64h64v128h-128v64h128v64h-128v64h64v64h-64v192h128v-192h128v192h128v-192h-64v-64h64v-64h-128v-64h128v-64h-128v-128h64v-64h-256z" />
    <glyph glyph-name="brokenbar" unicode="&#xa6;" horiz-adv-x="256" 
d="M64 128v320h128v-320h-128zM64 576v320h128v-320h-128z" />
    <glyph glyph-name="section" unicode="&#xa7;" 
d="M128 0v64h192v-64h-192zM320 64v64h64v-64h-64zM256 192v64h64v192h-64v-64h-64v-192h64zM128 128v64h-64v192h64v64h64v64h192v-64h64v-192h-64v-64h-64v-64h-192zM128 512v64h64v-64h-64zM192 576v64h192v-64h-192z" />
    <glyph glyph-name="dieresis" unicode="&#xa8;" horiz-adv-x="448" 
d="M64 768v128h128v-128h-128zM256 768v128h128v-128h-128z" />
    <glyph glyph-name="copyright" unicode="&#xa9;" horiz-adv-x="768" 
d="M192 192v64h384v-64h-384zM128 256v64h64v-64h-64zM576 256v64h64v-64h-64zM64 320v384h64v-384h-64zM256 320v64h-64v256h64v64h256v-64h-192v-256h192v-64h-256zM640 320v384h64v-384h-64zM128 704v64h64v-64h-64zM576 704v64h64v-64h-64zM192 768v64h384v-64h-384z
" />
    <glyph glyph-name="ordfeminine" unicode="&#xaa;" horiz-adv-x="384" 
d="M64 448v64h256v-64h-256zM64 640v64h64v-64h-64zM64 768v64h64v-64h-64zM128 576v64h128v64h-128v64h128v64h64v-256h-192zM128 832v64h128v-64h-128z" />
    <glyph glyph-name="guillemotleft" unicode="&#xab;" horiz-adv-x="448" 
d="M192 128v64h64v-64h-64zM128 192v64h64v-64h-64zM320 192v64h64v-64h-64zM64 256v64h64v-64h-64zM256 256v64h64v-64h-64zM128 320v64h64v-64h-64zM320 320v64h64v-64h-64zM192 384v64h64v-64h-64z" />
    <glyph glyph-name="logicalnot" unicode="&#xac;" horiz-adv-x="576" 
d="M448 128v128h-384v64h448v-192h-64z" />
    <glyph glyph-name="uni00AD" unicode="&#xad;" horiz-adv-x="320" 
d="M64 448v64h192v-64h-192z" />
    <glyph glyph-name="registered" unicode="&#xae;" horiz-adv-x="768" 
d="M192 192v64h384v-64h-384zM128 256v64h64v-64h-64zM576 256v64h64v-64h-64zM448 320v128h64v-128h-64zM448 512v128h64v-128h-64zM64 320v384h64v-384h-64zM256 320v384h192v-64h-128v-128h128v-64h-128v-128h-64zM640 320v384h64v-384h-64zM128 704v64h64v-64h-64z
M576 704v64h64v-64h-64zM192 768v64h384v-64h-384z" />
    <glyph glyph-name="macron" unicode="&#xaf;" horiz-adv-x="320" 
d="M64 832v64h192v-64h-192z" />
    <glyph glyph-name="degree" unicode="&#xb0;" horiz-adv-x="384" 
d="M128 640v64h128v-64h-128zM64 704v128h64v-128h-64zM256 704v128h64v-128h-64zM128 832v64h128v-64h-128z" />
    <glyph glyph-name="plusminus" unicode="&#xb1;" horiz-adv-x="640" 
d="M64 192v64h192v192h-192v64h192v192h128v-192h192v-64h-192v-192h192v-64h-512z" />
    <glyph glyph-name="uni00B2" unicode="&#xb2;" horiz-adv-x="384" 
d="M64 576v64h64v64h64v-64h128v-64h-256zM192 704v64h64v-64h-64zM64 768v64h64v-64h-64zM256 768v64h64v-64h-64zM128 832v64h128v-64h-128z" />
    <glyph glyph-name="uni00B3" unicode="&#xb3;" horiz-adv-x="384" 
d="M128 576v64h128v-64h-128zM64 640v64h64v-64h-64zM256 640v64h64v-64h-64zM192 704v64h64v-64h-64zM64 768v64h64v-64h-64zM256 768v64h64v-64h-64zM128 832v64h128v-64h-128z" />
    <glyph glyph-name="acute" unicode="&#xb4;" horiz-adv-x="384" 
d="M64 704v64h64v-64h-64zM128 768v64h64v-64h-64zM256 768v64h-64v64h128v-128h-64z" />
    <glyph glyph-name="mu" unicode="&#xb5;" 
d="M64 0v512h128v-320h128v320h128v-320h-64v-64h-192v-128h-128z" />
    <glyph glyph-name="paragraph" unicode="&#xb6;" 
d="M384 192v192h-64v-192h64zM256 512v128h-64v-128h64zM384 448v256h-64v-256h64zM192 128v64h64v192h-64v64h-64v64h-64v128h64v64h64v64h320v-64h-64v-512h64v-64h-320z" />
    <glyph glyph-name="periodcentered" unicode="&#xb7;" horiz-adv-x="256" 
d="M64 384v128h128v-128h-128z" />
    <glyph glyph-name="cedilla" unicode="&#xb8;" horiz-adv-x="320" 
d="M64 0v64h128v-64h-128zM192 64v64h64v-64h-64zM128 128v64h64v-64h-64z" />
    <glyph glyph-name="uni00B9" unicode="&#xb9;" horiz-adv-x="320" 
d="M64 576v64h64v192h-64v64h128v-256h64v-64h-192z" />
    <glyph glyph-name="ordmasculine" unicode="&#xba;" horiz-adv-x="384" 
d="M64 512v64h256v-64h-256zM128 640v64h128v-64h-128zM64 704v128h64v-128h-64zM256 704v128h64v-128h-64zM128 832v64h128v-64h-128z" />
    <glyph glyph-name="guillemotright" unicode="&#xbb;" horiz-adv-x="448" 
d="M192 128v64h64v-64h-64zM64 192v64h64v-64h-64zM256 192v64h64v-64h-64zM128 256v64h64v-64h-64zM320 256v64h64v-64h-64zM64 320v64h64v-64h-64zM256 320v64h64v-64h-64zM192 384v64h64v-64h-64z" />
    <glyph glyph-name="onequarter" unicode="&#xbc;" horiz-adv-x="704" 
d="M512 256v64h-128v192h-64v-64h-64v-64h-64v-64h-128v64h64v64h64v64h64v64h64v64h64v64h64v64h64v64h128v-64h-64v-64h-64v-64h-64v-256h64v64h64v-64h64v-64h-64v-64h-64zM64 576v64h64v192h-64v64h128v-256h64v-64h-192z" />
    <glyph glyph-name="onehalf" unicode="&#xbd;" horiz-adv-x="704" 
d="M384 256v64h64v64h64v-64h128v-64h-256zM512 384v64h64v-64h-64zM384 448v64h64v-64h-64zM576 448v64h64v-64h-64zM448 512v64h128v-64h-128zM64 320v64h64v64h64v64h64v64h64v64h64v64h64v64h64v64h128v-64h-64v-64h-64v-64h-64v-64h-64v-64h-64v-64h-64v-64h-64v-64
h-128zM64 576v64h64v192h-64v64h128v-256h64v-64h-192z" />
    <glyph glyph-name="threequarters" unicode="&#xbe;" horiz-adv-x="704" 
d="M128 576v64h128v-64h-128zM64 640v64h64v-64h-64zM256 640v64h64v-64h-64zM192 704v64h64v-64h-64zM64 768v64h64v-64h-64zM256 768v64h64v-64h-64zM512 256v64h-128v192h-64v-64h-64v-64h-64v-64h-128v64h64v64h64v64h64v64h64v64h64v64h64v64h64v64h128v-64h-64v-64
h-64v-64h-64v-256h64v64h64v-64h64v-64h-64v-64h-64zM128 832v64h128v-64h-128z" />
    <glyph glyph-name="questiondown" unicode="&#xbf;" horiz-adv-x="576" 
d="M128 128v64h-64v256h64v64h64v64h64v192h128v-192h-64v-64h-64v-64h-64v-256h192v64h64v64h128v-64h-64v-64h-64v-64h-320zM256 832v64h128v-64h-128z" />
    <glyph glyph-name="Agrave" unicode="&#xc0;" horiz-adv-x="576" 
d="M384 448v128h-64v64h-64v-64h-64v-128h192zM64 128v448h64v64h64v64h192v-64h64v-64h64v-448h-128v256h-192v-256h-128zM320 768v64h64v-64h-64zM192 832v64h128v-64h-128z" />
    <glyph glyph-name="Aacute" unicode="&#xc1;" horiz-adv-x="576" 
d="M384 448v128h-64v64h-64v-64h-64v-128h192zM64 128v448h64v64h64v64h192v-64h64v-64h64v-448h-128v256h-192v-256h-128zM192 768v64h64v-64h-64zM256 832v64h128v-64h-128z" />
    <glyph glyph-name="Acircumflex" unicode="&#xc2;" horiz-adv-x="576" 
d="M384 448v128h-64v64h-64v-64h-64v-128h192zM64 128v448h64v64h64v64h192v-64h64v-64h64v-448h-128v256h-192v-256h-128zM128 768v64h64v-64h-64zM384 768v64h64v-64h-64zM192 832v64h192v-64h-192z" />
    <glyph glyph-name="Atilde" unicode="&#xc3;" horiz-adv-x="576" 
d="M384 448v128h-64v64h-64v-64h-64v-128h192zM64 128v448h64v64h64v64h192v-64h64v-64h64v-448h-128v256h-192v-256h-128zM128 768v64h64v-64h-64zM256 768v64h128v-64h-128zM192 832v64h64v-64h-64zM384 832v64h64v-64h-64z" />
    <glyph glyph-name="Adieresis" unicode="&#xc4;" horiz-adv-x="576" 
d="M384 448v128h-64v64h-64v-64h-64v-128h192zM64 128v448h64v64h64v64h192v-64h64v-64h64v-448h-128v256h-192v-256h-128zM128 768v128h64v-128h-64zM384 768v128h64v-128h-64z" />
    <glyph glyph-name="Aring" unicode="&#xc5;" horiz-adv-x="576" 
d="M384 448v128h-64v64h-64v-64h-64v-128h192zM64 128v448h64v64h64v64h192v-64h64v-64h64v-448h-128v256h-192v-256h-128zM192 768v64h192v-64h-192zM128 832v64h64v-64h-64zM384 832v64h64v-64h-64z" />
    <glyph glyph-name="AE" unicode="&#xc6;" horiz-adv-x="832" 
d="M384 448v128h-64v64h-64v-64h-64v-128h192zM64 128v448h64v64h64v64h576v-64h-256v-192h128v-64h-128v-192h320v-64h-448v256h-192v-256h-128z" />
    <glyph glyph-name="Ccedilla" unicode="&#xc7;" 
d="M192 -64v64h128v-64h-128zM320 0v64h64v-64h-64zM256 64v64h64v-64h-64zM320 128v64h128v-64h-128zM128 128v64h-64v384h64v64h64v64h192v-64h64v-64h-128v64h-64v-64h-64v-384h64v-64h-128z" />
    <glyph glyph-name="Egrave" unicode="&#xc8;" horiz-adv-x="576" 
d="M64 128v576h384v-64h-256v-128h128v-64h-128v-256h320v-64h-448zM256 768v64h64v-64h-64zM128 832v64h128v-64h-128z" />
    <glyph glyph-name="Eacute" unicode="&#xc9;" horiz-adv-x="576" 
d="M64 128v576h384v-64h-256v-128h128v-64h-128v-256h320v-64h-448zM128 768v64h64v-64h-64zM192 832v64h128v-64h-128z" />
    <glyph glyph-name="Ecircumflex" unicode="&#xca;" horiz-adv-x="576" 
d="M64 128v576h384v-64h-256v-128h128v-64h-128v-256h320v-64h-448zM64 768v64h64v-64h-64zM320 768v64h64v-64h-64zM128 832v64h192v-64h-192z" />
    <glyph glyph-name="Edieresis" unicode="&#xcb;" horiz-adv-x="576" 
d="M64 128v576h384v-64h-256v-128h128v-64h-128v-256h320v-64h-448zM64 768v128h64v-128h-64zM256 768v128h64v-128h-64z" />
    <glyph glyph-name="Igrave" unicode="&#xcc;" horiz-adv-x="256" 
d="M64 128v576h128v-576h-128zM192 768v64h64v-64h-64zM64 832v64h128v-64h-128z" />
    <glyph glyph-name="Iacute" unicode="&#xcd;" horiz-adv-x="256" 
d="M64 128v576h128v-576h-128zM64 768v64h64v-64h-64zM128 832v64h128v-64h-128z" />
    <glyph glyph-name="Icircumflex" unicode="&#xce;" horiz-adv-x="320" 
d="M64 128v576h128v-576h-128zM0 768v64h64v-64h-64zM256 768v64h64v-64h-64zM64 832v64h192v-64h-192z" />
    <glyph glyph-name="Idieresis" unicode="&#xcf;" horiz-adv-x="256" 
d="M64 128v576h128v-576h-128zM0 768v128h64v-128h-64zM192 768v128h64v-128h-64z" />
    <glyph glyph-name="Eth" unicode="&#xd0;" 
d="M320 192v448h-64v64h-64v-256h64v-64h-64v-192h128zM64 128v256h-64v64h64v320h256v-64h64v-64h64v-448h-64v-64h-320z" />
    <glyph glyph-name="Ntilde" unicode="&#xd1;" horiz-adv-x="576" 
d="M64 128v576h128v-64h64v-64h64v-128h64v256h128v-576h-128v64h-64v64h-64v192h-64v-320h-128zM128 768v64h64v-64h-64zM320 768v64h64v-64h-64zM192 832v64h128v-64h-128zM384 832v64h64v-64h-64z" />
    <glyph glyph-name="Ograve" unicode="&#xd2;" horiz-adv-x="576" 
d="M320 192v64h64v320h-64v64h-64v-64h-64v-320h64v-64h64zM192 128v64h-64v64h-64v320h64v64h64v64h192v-64h64v-64h64v-320h-64v-64h-64v-64h-192zM320 768v64h64v-64h-64zM192 832v64h128v-64h-128z" />
    <glyph glyph-name="Oacute" unicode="&#xd3;" horiz-adv-x="576" 
d="M320 192v64h64v320h-64v64h-64v-64h-64v-320h64v-64h64zM192 128v64h-64v64h-64v320h64v64h64v64h192v-64h64v-64h64v-320h-64v-64h-64v-64h-192zM192 768v64h64v-64h-64zM256 832v64h128v-64h-128z" />
    <glyph glyph-name="Ocircumflex" unicode="&#xd4;" horiz-adv-x="576" 
d="M320 192v64h64v320h-64v64h-64v-64h-64v-320h64v-64h64zM192 128v64h-64v64h-64v320h64v64h64v64h192v-64h64v-64h64v-320h-64v-64h-64v-64h-192zM128 768v64h64v-64h-64zM384 768v64h64v-64h-64zM192 832v64h192v-64h-192z" />
    <glyph glyph-name="Otilde" unicode="&#xd5;" horiz-adv-x="576" 
d="M320 192v64h64v320h-64v64h-64v-64h-64v-320h64v-64h64zM192 128v64h-64v64h-64v320h64v64h64v64h192v-64h64v-64h64v-320h-64v-64h-64v-64h-192zM128 768v64h64v-64h-64zM256 768v64h128v-64h-128zM192 832v64h64v-64h-64zM384 832v64h64v-64h-64z" />
    <glyph glyph-name="Odieresis" unicode="&#xd6;" horiz-adv-x="576" 
d="M320 192v64h64v320h-64v64h-64v-64h-64v-320h64v-64h64zM192 128v64h-64v64h-64v320h64v64h64v64h192v-64h64v-64h64v-320h-64v-64h-64v-64h-192zM128 768v128h64v-128h-64zM384 768v128h64v-128h-64z" />
    <glyph glyph-name="multiply" unicode="&#xd7;" 
d="M64 192v64h64v-64h-64zM384 192v64h64v-64h-64zM128 256v64h64v-64h-64zM320 256v64h64v-64h-64zM192 320v128h128v-128h-128zM128 448v64h64v-64h-64zM320 448v64h64v-64h-64zM64 512v64h64v-64h-64zM384 512v64h64v-64h-64z" />
    <glyph glyph-name="Oslash" unicode="&#xd8;" horiz-adv-x="640" 
d="M0 64v64h64v-64h-64zM64 128v64h64v-64h-64zM256 320v128h64v64h64v-128h-64v-64h-64zM384 192v64h64v256h-64v128h-128v-64h-64v-256h64v-128h128zM192 128v64h-64v64h-64v320h64v64h64v64h256v-64h64v-64h64v-320h-64v-64h-64v-64h-256zM512 640v64h64v-64h-64z
M576 704v64h64v-64h-64z" />
    <glyph glyph-name="Ugrave" unicode="&#xd9;" horiz-adv-x="576" 
d="M192 128v64h-64v64h-64v448h128v-448h64v-64h64v64h64v448h128v-576h-320zM320 768v64h64v-64h-64zM192 832v64h128v-64h-128z" />
    <glyph glyph-name="Uacute" unicode="&#xda;" horiz-adv-x="576" 
d="M192 128v64h-64v64h-64v448h128v-448h64v-64h64v64h64v448h128v-576h-320zM192 768v64h64v-64h-64zM256 832v64h128v-64h-128z" />
    <glyph glyph-name="Ucircumflex" unicode="&#xdb;" horiz-adv-x="576" 
d="M192 128v64h-64v64h-64v448h128v-448h64v-64h64v64h64v448h128v-576h-320zM128 768v64h64v-64h-64zM384 768v64h64v-64h-64zM192 832v64h192v-64h-192z" />
    <glyph glyph-name="Udieresis" unicode="&#xdc;" horiz-adv-x="576" 
d="M192 128v64h-64v64h-64v448h128v-448h64v-64h64v64h64v448h128v-576h-320zM128 768v128h64v-128h-64zM384 768v128h64v-128h-64z" />
    <glyph glyph-name="Yacute" unicode="&#xdd;" 
d="M192 128v320h-64v64h-64v192h128v-192h128v192h128v-192h-64v-64h-64v-320h-128zM192 768v64h64v-64h-64zM256 832v64h128v-64h-128z" />
    <glyph glyph-name="Thorn" unicode="&#xde;" 
d="M320 320v64h64v-64h-64zM384 384v128h64v-128h-64zM320 512v64h64v-64h-64zM0 128v64h64v512h-64v64h256v-64h-64v-64h128v-64h-128v-256h128v-64h-128v-64h64v-64h-256z" />
    <glyph glyph-name="germandbls" unicode="&#xdf;" 
d="M320 192v256h-128v-256h128zM320 512v192h-128v-192h128zM0 128v64h64v512h64v64h256v-64h64v-192h-64v-64h64v-256h-64v-64h-384z" />
    <glyph glyph-name="agrave" unicode="&#xe0;" 
d="M320 192v128h-128v-128h128zM320 384v64h-128v-64h128zM128 128v64h-64v128h64v64h-64v64h64v64h256v-64h64v-320h-320zM320 576v64h64v-64h-64zM192 640v64h128v-64h-128z" />
    <glyph glyph-name="aacute" unicode="&#xe1;" 
d="M320 192v128h-128v-128h128zM320 384v64h-128v-64h128zM128 128v64h-64v128h64v64h-64v64h64v64h256v-64h64v-320h-320zM192 576v64h64v-64h-64zM256 640v64h128v-64h-128z" />
    <glyph glyph-name="acircumflex" unicode="&#xe2;" 
d="M320 192v128h-128v-128h128zM320 384v64h-128v-64h128zM128 128v64h-64v128h64v64h-64v64h64v64h256v-64h64v-320h-320zM128 576v64h64v-64h-64zM320 576v64h64v-64h-64zM192 640v64h128v-64h-128z" />
    <glyph glyph-name="atilde" unicode="&#xe3;" 
d="M320 192v128h-128v-128h128zM320 384v64h-128v-64h128zM128 128v64h-64v128h64v64h-64v64h64v64h256v-64h64v-320h-320zM128 576v64h64v-64h-64zM256 576v64h64v-64h-64zM192 640v64h64v-64h-64zM320 640v64h64v-64h-64z" />
    <glyph glyph-name="adieresis" unicode="&#xe4;" 
d="M320 192v128h-128v-128h128zM320 384v64h-128v-64h128zM128 128v64h-64v128h64v64h-64v64h64v64h256v-64h64v-320h-320zM128 576v128h64v-128h-64zM320 576v128h64v-128h-64z" />
    <glyph glyph-name="aring" unicode="&#xe5;" 
d="M320 192v128h-128v-128h128zM320 384v64h-128v-64h128zM128 128v64h-64v128h64v64h-64v64h64v64h256v-64h64v-320h-320zM192 576v64h128v-64h-128zM128 640v128h64v-128h-64zM320 640v128h64v-128h-64zM192 768v64h128v-64h-128z" />
    <glyph glyph-name="ae" unicode="&#xe6;" horiz-adv-x="832" 
d="M320 192v128h-128v-128h128zM320 384v64h-128v-64h128zM640 320v128h-128v-128h128zM128 128v64h-64v128h64v64h-64v64h64v64h256v-64h64v64h256v-64h64v-128h-64v-64h-192v-64h256v-64h-320v64h-64v-64h-256z" />
    <glyph glyph-name="ccedilla" unicode="&#xe7;" horiz-adv-x="384" 
d="M128 -64v64h128v-64h-128zM256 0v64h64v-64h-64zM192 64v64h-64v64h-64v256h64v64h256v-64h-192v-256h192v-64h-128v-64h-64z" />
    <glyph glyph-name="egrave" unicode="&#xe8;" 
d="M320 320v128h-128v-128h128zM128 128v64h-64v256h64v64h256v-64h64v-128h-64v-64h-192v-64h256v-64h-320zM320 576v64h64v-64h-64zM192 640v64h128v-64h-128z" />
    <glyph glyph-name="eacute" unicode="&#xe9;" 
d="M320 320v128h-128v-128h128zM128 128v64h-64v256h64v64h256v-64h64v-128h-64v-64h-192v-64h256v-64h-320zM192 576v64h64v-64h-64zM256 640v64h128v-64h-128z" />
    <glyph glyph-name="ecircumflex" unicode="&#xea;" 
d="M320 320v128h-128v-128h128zM128 128v64h-64v256h64v64h256v-64h64v-128h-64v-64h-192v-64h256v-64h-320zM128 576v64h64v-64h-64zM320 576v64h64v-64h-64zM192 640v64h128v-64h-128z" />
    <glyph glyph-name="edieresis" unicode="&#xeb;" 
d="M320 320v128h-128v-128h128zM128 128v64h-64v256h64v64h256v-64h64v-128h-64v-64h-192v-64h256v-64h-320zM128 576v128h64v-128h-64zM320 576v128h64v-128h-64z" />
    <glyph glyph-name="igrave" unicode="&#xec;" horiz-adv-x="256" 
d="M64 128v320h128v-320h-128zM192 512v64h64v-64h-64zM64 576v64h128v-64h-128z" />
    <glyph glyph-name="iacute" unicode="&#xed;" horiz-adv-x="256" 
d="M64 128v320h128v-320h-128zM64 512v64h64v-64h-64zM128 576v64h128v-64h-128z" />
    <glyph glyph-name="icircumflex" unicode="&#xee;" horiz-adv-x="320" 
d="M64 128v320h128v-320h-128zM0 512v64h64v-64h-64zM256 512v64h64v-64h-64zM64 576v64h192v-64h-192z" />
    <glyph glyph-name="idieresis" unicode="&#xef;" horiz-adv-x="256" 
d="M64 128v320h128v-320h-128zM0 512v128h64v-128h-64zM192 512v128h64v-128h-64z" />
    <glyph glyph-name="eth" unicode="&#xf0;" 
d="M320 192v256h-128v-256h128zM128 128v64h-64v256h64v64h192v64h64v-128h64v-256h-64v-64h-256zM192 576v64h128v-64h-128zM128 640v64h64v-64h-64zM320 640v64h64v-64h-64z" />
    <glyph glyph-name="ntilde" unicode="&#xf1;" 
d="M64 128v384h320v-64h64v-320h-128v320h-64v-64h-64v-256h-128zM128 576v64h64v-64h-64zM256 576v64h64v-64h-64zM192 640v64h64v-64h-64zM320 640v64h64v-64h-64z" />
    <glyph glyph-name="ograve" unicode="&#xf2;" 
d="M320 192v256h-128v-256h128zM128 128v64h-64v256h64v64h256v-64h64v-256h-64v-64h-256zM320 576v64h64v-64h-64zM192 640v64h128v-64h-128z" />
    <glyph glyph-name="oacute" unicode="&#xf3;" 
d="M320 192v256h-128v-256h128zM128 128v64h-64v256h64v64h256v-64h64v-256h-64v-64h-256zM192 576v64h64v-64h-64zM256 640v64h128v-64h-128z" />
    <glyph glyph-name="ocircumflex" unicode="&#xf4;" 
d="M320 192v256h-128v-256h128zM128 128v64h-64v256h64v64h256v-64h64v-256h-64v-64h-256zM128 576v64h64v-64h-64zM320 576v64h64v-64h-64zM192 640v64h128v-64h-128z" />
    <glyph glyph-name="otilde" unicode="&#xf5;" 
d="M320 192v256h-128v-256h128zM128 128v64h-64v256h64v64h256v-64h64v-256h-64v-64h-256zM128 576v64h64v-64h-64zM256 576v64h64v-64h-64zM192 640v64h64v-64h-64zM320 640v64h64v-64h-64z" />
    <glyph glyph-name="odieresis" unicode="&#xf6;" 
d="M320 192v256h-128v-256h128zM128 128v64h-64v256h64v64h256v-64h64v-256h-64v-64h-256zM128 576v128h64v-128h-64zM320 576v128h64v-128h-64z" />
    <glyph glyph-name="divide" unicode="&#xf7;" horiz-adv-x="640" 
d="M256 192v128h128v-128h-128zM64 384v64h512v-64h-512zM256 512v128h128v-128h-128z" />
    <glyph glyph-name="oslash" unicode="&#xf8;" 
d="M64 64v64h64v-64h-64zM320 192v128h-64v64h64v64h-128v-128h64v-64h-64v-64h128zM128 128v64h-64v256h64v64h256v-64h64v-256h-64v-64h-256zM384 512v64h64v-64h-64z" />
    <glyph glyph-name="ugrave" unicode="&#xf9;" 
d="M128 128v64h-64v320h128v-320h128v320h128v-320h-64v-64h-256zM320 576v64h64v-64h-64zM192 640v64h128v-64h-128z" />
    <glyph glyph-name="uacute" unicode="&#xfa;" 
d="M128 128v64h-64v320h128v-320h128v320h128v-320h-64v-64h-256zM192 576v64h64v-64h-64zM256 640v64h128v-64h-128z" />
    <glyph glyph-name="ucircumflex" unicode="&#xfb;" 
d="M128 128v64h-64v320h128v-320h128v320h128v-320h-64v-64h-256zM128 576v64h64v-64h-64zM320 576v64h64v-64h-64zM192 640v64h128v-64h-128z" />
    <glyph glyph-name="udieresis" unicode="&#xfc;" 
d="M128 128v64h-64v320h128v-320h128v320h128v-320h-64v-64h-256zM128 576v128h64v-128h-64zM320 576v128h64v-128h-64z" />
    <glyph glyph-name="yacute" unicode="&#xfd;" 
d="M128 -128v64h-64v64h128v-64h64v64h64v192h-192v64h-64v256h128v-256h128v256h128v-512h-64v-64h-64v-64h-192zM192 576v64h64v-64h-64zM256 640v64h128v-64h-128z" />
    <glyph glyph-name="thorn" unicode="&#xfe;" 
d="M320 192v256h-128v-256h128zM0 -128v64h64v640h-64v64h192v-128h192v-64h64v-256h-64v-64h-192v-192h64v-64h-256z" />
    <glyph glyph-name="ydieresis" unicode="&#xff;" 
d="M128 -128v64h-64v64h128v-64h64v64h64v192h-192v64h-64v256h128v-256h128v256h128v-512h-64v-64h-64v-64h-192zM128 576v128h64v-128h-64zM320 576v128h64v-128h-64z" />
    <glyph glyph-name="OE" unicode="&#x152;" horiz-adv-x="640" 
d="M320 192v320h-128v-320h128zM128 128v64h-64v320h64v64h448v-64h-192v-128h192v-64h-192v-128h192v-64h-448z" />
    <glyph glyph-name="oe" unicode="&#x153;" horiz-adv-x="640" 
d="M512 192v64h64v-64h-64zM512 384v64h64v-64h-64zM128 128v64h-64v256h64v64h192v-64h-128v-256h128v256h64v-64h128v-64h-128v-128h128v-64h-384zM384 448v64h128v-64h-128z" />
    <glyph glyph-name="Ydieresis" unicode="&#x178;" horiz-adv-x="448" 
d="M192 128v256h64v-256h-64zM128 384v128h64v-128h-64zM256 384v128h64v-128h-64zM64 512v64h64v-64h-64zM320 512v64h64v-64h-64zM128 640v64h64v-64h-64zM256 640v64h64v-64h-64z" />
    <glyph glyph-name="uni0180" unicode="&#x180;" horiz-adv-x="640" 
d="M256 192v192h-192v64h192v192h128v-192h192v-64h-192v-192h-128z" />
    <glyph glyph-name="uni0181" unicode="&#x181;" horiz-adv-x="640" 
d="M128 192v192h-64v64h64v192h128v-192h128v192h128v-192h64v-64h-64v-192h-128v192h-128v-192h-128z" />
    <glyph glyph-name="uni0182" unicode="&#x182;" horiz-adv-x="640" 
d="M64 192v448h128v-192h64v192h128v-192h64v192h128v-448h-128v192h-64v-192h-128v192h-64v-192h-128z" />
    <glyph glyph-name="uni0183" unicode="&#x183;" horiz-adv-x="640" 
d="M256 192v128h-192v64h192v64h-192v64h192v128h128v-128h192v-64h-192v-64h192v-64h-192v-128h-128z" />
    <glyph glyph-name="uni0184" unicode="&#x184;" horiz-adv-x="640" 
d="M384 384v64h-128v-64h128zM128 192v128h-64v64h64v64h-64v64h64v128h128v-128h128v128h128v-128h64v-64h-64v-64h64v-64h-64v-128h-128v128h-128v-128h-128z" />
    <glyph glyph-name="uni0185" unicode="&#x185;" horiz-adv-x="640" 
d="M256 384v64h-64v-64h64zM448 384v64h-64v-64h64zM64 192v448h128v-128h64v128h128v-128h64v128h128v-448h-128v128h-64v-128h-128v128h-64v-128h-128z" />
    <glyph glyph-name="uni0186" unicode="&#x186;" horiz-adv-x="640" 
d="M256 192v64h-192v64h192v64h-192v64h192v64h-192v64h192v64h128v-64h192v-64h-192v-64h192v-64h-192v-64h192v-64h-192v-64h-128z" />
    <glyph glyph-name="uni0187" unicode="&#x187;" horiz-adv-x="640" 
d="M384 320v64h-128v-64h128zM384 448v64h-128v-64h128zM128 192v64h-64v64h64v64h-64v64h64v64h-64v64h64v64h128v-64h128v64h128v-64h64v-64h-64v-64h64v-64h-64v-64h64v-64h-64v-64h-128v64h-128v-64h-128z" />
    <glyph glyph-name="uni0188" unicode="&#x188;" horiz-adv-x="640" 
d="M256 320v64h-64v-64h64zM448 320v64h-64v-64h64zM256 448v64h-64v-64h64zM448 448v64h-64v-64h64zM64 192v448h128v-64h64v64h128v-64h64v64h128v-448h-128v64h-64v-64h-128v64h-64v-64h-128z" />
    <glyph glyph-name="uni0189" unicode="&#x189;" horiz-adv-x="640" 
d="M64 192v64h64v64h64v64h64v64h-64v64h-64v64h-64v64h128v-64h64v64h128v-64h64v64h128v-64h-64v-64h-64v-64h-64v-64h64v-64h64v-64h64v-64h-128v64h-64v-64h-128v64h-64v-64h-128z" />
    <glyph glyph-name="uni018A" unicode="&#x18a;" horiz-adv-x="640" 
d="M256 384v64h-64v-64h64zM448 384v64h-64v-64h64zM64 192v448h128v-64h64v-64h128v64h64v64h128v-448h-128v64h-64v64h-128v-64h-64v-64h-128z" />
    <glyph glyph-name="uni018B" unicode="&#x18b;" horiz-adv-x="640" 
d="M256 384v64h-64v-64h64zM448 384v64h-64v-64h64zM64 192v448h128v-64h64v64h128v-64h64v64h128v-448h-128v64h-64v-64h-128v64h-64v-64h-128z" />
    <glyph glyph-name="quoteleft" unicode="&#x2018;" horiz-adv-x="256" 
d="M64 640v192h64v-64h64v-128h-128zM128 832v64h64v-64h-64z" />
    <glyph glyph-name="quoteright" unicode="&#x2019;" horiz-adv-x="256" 
d="M64 640v64h64v-64h-64zM128 704v64h-64v128h128v-192h-64z" />
    <glyph glyph-name="quotedblleft" unicode="&#x201c;" horiz-adv-x="448" 
d="M64 640v192h64v-64h64v-128h-128zM256 640v192h64v-64h64v-128h-128zM128 832v64h64v-64h-64zM320 832v64h64v-64h-64z" />
    <glyph glyph-name="quotedblright" unicode="&#x201d;" horiz-adv-x="448" 
d="M64 640v64h64v-64h-64zM256 640v64h64v-64h-64zM128 704v64h-64v128h128v-192h-64zM320 704v64h-64v128h128v-192h-64z" />
    <glyph glyph-name="ellipsis" unicode="&#x2026;" horiz-adv-x="640" 
d="M64 128v64h128v-64h-128zM256 128v64h128v-64h-128zM448 128v64h128v-64h-128z" />
    <glyph glyph-name="Euro" unicode="&#x20ac;" horiz-adv-x="640" 
d="M192 128v64h-64v128h-64v64h64v64h-64v64h64v128h64v64h320v-64h64v-64h-128v64h-192v-64h-64v-64h320v-64h-320v-64h256v-64h-256v-64h64v-64h192v64h128v-64h-64v-64h-320z" />
    <glyph glyph-name="trademark" unicode="&#x2122;" horiz-adv-x="832" 
d="M320 384v64h64v64h-64v64h-128v-192h128zM640 384v192h-128v-64h-64v-64h64v-64h128zM128 320v64h-64v192h64v64h256v-64h64v64h256v-64h64v-192h-64v-64h-256v64h-64v-64h-256z" />
  </font>
</defs>
</svg>
